<svg width="253" height="306" viewBox="0 0 253 306" fill="none" xmlns="http://www.w3.org/2000/svg">
<path d="M61.4999 0.5H139.5L81.9998 206.5H119L81.9998 305L178.5 165H139.5L173.5 74C225.777 87.5794 249.305 101.015 251.5 165C244.266 212.833 227.227 238.944 178.5 277C145.81 295.383 126.112 303.649 81.9998 305C48.8021 303.626 33.68 297.66 13.4999 277C0.600259 254.234 -1.04752 238.449 2.99985 206.5L61.4999 0.5Z" fill="black"/>
<path d="M81.9998 305L119 206.5H81.9998L139.5 0.5H61.4999L2.99985 206.5C-1.04752 238.449 0.600259 254.234 13.4999 277C33.68 297.66 48.8021 303.626 81.9998 305ZM81.9998 305L178.5 165H139.5L173.5 74C225.777 87.5794 249.305 101.015 251.5 165C244.266 212.833 227.227 238.944 178.5 277C145.81 295.383 126.112 303.649 81.9998 305Z" stroke="black"/>
</svg>
