<svg width="83" height="47" viewBox="0 0 83 47" fill="none" xmlns="http://www.w3.org/2000/svg">
<path d="M15.068 46.768C12.0387 46.768 9.244 46.2133 6.684 45.104C4.16667 43.952 2.09733 42.3307 0.476 40.24L6.236 33.328C8.668 36.6133 11.4413 38.256 14.556 38.256C18.78 38.256 20.892 35.7813 20.892 30.832V9.52H5.148V1.2H31.196V30.256C31.196 35.76 29.8307 39.8987 27.1 42.672C24.3693 45.4027 20.3587 46.768 15.068 46.768ZM71.709 22.896H81.181V41.072C78.749 42.9067 75.933 44.3147 72.733 45.296C69.533 46.2773 66.3117 46.768 63.069 46.768C58.4183 46.768 54.237 45.7867 50.525 43.824C46.813 41.8187 43.8903 39.0667 41.757 35.568C39.6663 32.0267 38.621 28.0373 38.621 23.6C38.621 19.1627 39.6663 15.1947 41.757 11.696C43.8903 8.15467 46.8343 5.40267 50.589 3.44C54.3437 1.43467 58.5677 0.431999 63.261 0.431999C67.1863 0.431999 70.749 1.09333 73.949 2.416C77.149 3.73866 79.837 5.65866 82.013 8.176L75.357 14.32C72.157 10.9493 68.2957 9.264 63.773 9.264C60.9143 9.264 58.3757 9.86133 56.157 11.056C53.9383 12.2507 52.2103 13.936 50.973 16.112C49.7357 18.288 49.117 20.784 49.117 23.6C49.117 26.3733 49.7357 28.848 50.973 31.024C52.2103 33.2 53.917 34.9067 56.093 36.144C58.3117 37.3387 60.829 37.936 63.645 37.936C66.6317 37.936 69.3197 37.296 71.709 36.016V22.896Z" fill="black"/>
<path d="M6.684 45.104L5.85175 46.9226L5.87019 46.9311L5.88879 46.9391L6.684 45.104ZM0.476 40.24L-1.06044 38.9596L-2.08988 40.195L-1.10444 41.4656L0.476 40.24ZM6.236 33.328L7.84348 32.138L6.32905 30.0922L4.69956 32.0476L6.236 33.328ZM20.892 9.52H22.892V7.52H20.892V9.52ZM5.148 9.52H3.148V11.52H5.148V9.52ZM5.148 1.2V-0.800003H3.148V1.2H5.148ZM31.196 1.2H33.196V-0.800003H31.196V1.2ZM27.1 42.672L28.5142 44.0862L28.5197 44.0807L28.5251 44.0752L27.1 42.672ZM15.068 44.768C12.2885 44.768 9.76734 44.2604 7.47921 43.2689L5.88879 46.9391C8.72066 48.1663 11.7888 48.768 15.068 48.768V44.768ZM7.51625 43.2854C5.27845 42.2613 3.47063 40.8379 2.05644 39.0144L-1.10444 41.4656C0.724038 43.8234 3.05488 45.6427 5.85175 46.9226L7.51625 43.2854ZM2.01244 41.5204L7.77244 34.6084L4.69956 32.0476L-1.06044 38.9596L2.01244 41.5204ZM4.62852 34.518C7.30889 38.1388 10.6183 40.256 14.556 40.256V36.256C12.2644 36.256 10.0271 35.0879 7.84348 32.138L4.62852 34.518ZM14.556 40.256C17.0665 40.256 19.2868 39.5057 20.8293 37.6983C22.32 35.9516 22.892 33.5443 22.892 30.832H18.892C18.892 33.0691 18.408 34.3737 17.7867 35.1017C17.2172 35.7689 16.2695 36.256 14.556 36.256V40.256ZM22.892 30.832V9.52H18.892V30.832H22.892ZM20.892 7.52H5.148V11.52H20.892V7.52ZM7.148 9.52V1.2H3.148V9.52H7.148ZM5.148 3.2H31.196V-0.800003H5.148V3.2ZM29.196 1.2V30.256H33.196V1.2H29.196ZM29.196 30.256C29.196 35.4543 27.9075 39.0012 25.6749 41.2688L28.5251 44.0752C31.7538 40.7961 33.196 36.0657 33.196 30.256H29.196ZM25.6858 41.2578C23.4516 43.4919 20.029 44.768 15.068 44.768V48.768C20.6883 48.768 25.287 47.3134 28.5142 44.0862L25.6858 41.2578ZM71.709 22.896V20.896H69.709V22.896H71.709ZM81.181 22.896H83.181V20.896H81.181V22.896ZM81.181 41.072L82.3855 42.6686L83.181 42.0685V41.072H81.181ZM72.733 45.296L73.3194 47.2081L73.3194 47.2081L72.733 45.296ZM50.525 43.824L49.5744 45.5836L49.5823 45.5879L49.5902 45.5921L50.525 43.824ZM41.757 35.568L40.0347 36.5848L40.042 36.597L40.0494 36.6092L41.757 35.568ZM41.757 11.696L40.0438 10.664L40.0402 10.6701L41.757 11.696ZM50.589 3.44L51.5155 5.21245L51.5234 5.20833L51.5312 5.20415L50.589 3.44ZM73.949 2.416L74.713 0.567663L74.713 0.567662L73.949 2.416ZM82.013 8.176L83.3696 9.64561L84.792 8.33259L83.5261 6.86809L82.013 8.176ZM75.357 14.32L73.9065 15.697L75.2644 17.1273L76.7136 15.7896L75.357 14.32ZM56.157 11.056L57.1052 12.8169L57.1052 12.8169L56.157 11.056ZM50.973 16.112L52.7116 17.1006L50.973 16.112ZM50.973 31.024L49.2344 32.0126L49.2344 32.0126L50.973 31.024ZM56.093 36.144L55.1044 37.8826L55.1245 37.894L55.1448 37.9049L56.093 36.144ZM71.709 36.016L72.6534 37.779L73.709 37.2135V36.016H71.709ZM71.709 24.896H81.181V20.896H71.709V24.896ZM79.181 22.896V41.072H83.181V22.896H79.181ZM79.9765 39.4754C77.7481 41.1565 75.1457 42.4642 72.1466 43.3839L73.3194 47.2081C76.7203 46.1652 79.7499 44.6569 82.3855 42.6686L79.9765 39.4754ZM72.1466 43.3839C69.1305 44.3088 66.1066 44.768 63.069 44.768V48.768C66.5168 48.768 69.9355 48.2458 73.3194 47.2081L72.1466 43.3839ZM63.069 44.768C58.7085 44.768 54.8538 43.8504 51.4598 42.0559L49.5902 45.5921C53.6202 47.7229 58.1282 48.768 63.069 48.768V44.768ZM51.4756 42.0644C48.0654 40.2221 45.408 37.714 43.4646 34.5268L40.0494 36.6092C42.3727 40.4194 45.5606 43.4153 49.5744 45.5836L51.4756 42.0644ZM43.4793 34.5512C41.5847 31.3421 40.621 27.7089 40.621 23.6H36.621C36.621 28.3657 37.7479 32.7112 40.0347 36.5848L43.4793 34.5512ZM40.621 23.6C40.621 19.4908 41.5848 15.8832 43.4738 12.7219L40.0402 10.6701C37.7479 14.5061 36.621 18.8345 36.621 23.6H40.621ZM43.4702 12.728C45.4093 9.50908 48.0775 7.00957 51.5155 5.21245L49.6625 1.66755C45.5911 3.79576 42.3714 6.80025 40.0438 10.664L43.4702 12.728ZM51.5312 5.20415C54.9671 3.36909 58.862 2.432 63.261 2.432V-1.568C58.2734 -1.568 53.7203 -0.49976 49.6468 1.67585L51.5312 5.20415ZM63.261 2.432C66.9591 2.432 70.2575 3.05431 73.185 4.26433L74.713 0.567662C71.2405 -0.867644 67.4136 -1.568 63.261 -1.568V2.432ZM73.185 4.26433C76.1087 5.47277 78.5364 7.21239 80.4999 9.48391L83.5261 6.86809C81.1376 4.10494 78.1893 2.00456 74.713 0.567663L73.185 4.26433ZM80.6564 6.70639L74.0004 12.8504L76.7136 15.7896L83.3696 9.64561L80.6564 6.70639ZM76.8075 12.943C73.2416 9.18697 68.861 7.264 63.773 7.264V11.264C67.7303 11.264 71.0724 12.7117 73.9065 15.697L76.8075 12.943ZM63.773 7.264C60.6284 7.264 57.7561 7.92342 55.2088 9.29506L57.1052 12.8169C58.9952 11.7992 61.2003 11.264 63.773 11.264V7.264ZM55.2088 9.29506C52.6617 10.6666 50.6588 12.6185 49.2344 15.1234L52.7116 17.1006C53.7619 15.2535 55.215 13.8348 57.1052 12.8169L55.2088 9.29506ZM49.2344 15.1234C47.8052 17.6369 47.117 20.4815 47.117 23.6H51.117C51.117 21.0865 51.6662 18.9391 52.7116 17.1006L49.2344 15.1234ZM47.117 23.6C47.117 26.6817 47.8078 29.5037 49.2344 32.0126L52.7116 30.0354C51.6636 28.1923 51.117 26.065 51.117 23.6H47.117ZM49.2344 32.0126C50.6497 34.5015 52.6155 36.4673 55.1044 37.8826L57.0816 34.4054C55.2185 33.346 53.771 31.8985 52.7116 30.0354L49.2344 32.0126ZM55.1448 37.9049C57.6878 39.2743 60.5376 39.936 63.645 39.936V35.936C61.1204 35.936 58.9355 35.4031 57.0412 34.3831L55.1448 37.9049ZM63.645 39.936C66.927 39.936 69.9449 39.23 72.6534 37.779L70.7646 34.253C68.6945 35.362 66.3364 35.936 63.645 35.936V39.936ZM73.709 36.016V22.896H69.709V36.016H73.709Z" fill="#BDBDBD"/>
</svg>
